HIERARCHY
ROOT hips
{
  OFFSET 0 10.6860622 2.3727825e-15
  CHANNELS 6 Xposition Yposition Zposition Yrotation Xrotation Zrotation
  JOINT leftUpperLeg
  {
    OFFSET 0.6642549969 -0.9402397400000004 0
    CHANNELS 3 Yrotation Xrotation Zrotation
    JOINT leftLowerLeg
    {
      OFFSET 0 -3.997221335632195 0
      CHANNELS 3 Yrotation Xrotation Zrotation
      JOINT leftFoot
      {
        OFFSET -0.13777839790000004 -4.6145792000000005 -0.22186036399999998
        CHANNELS 3 Yrotation Xrotation Zrotation
        JOINT leftToes
        {
          OFFSET -0.03777410834999995 -0.9130806927000008 0.85230013
          CHANNELS 3 Yrotation Xrotation Zrotation
          End Site
          {
            OFFSET -0.03777410834999995 -0.9130806927000008 0.85230013
          }
        }
      }
    }
  }
  JOINT rightUpperLeg
  {
    OFFSET -0.6642778626 -0.9402397400000004 0
    CHANNELS 3 Yrotation Xrotation Zrotation
    JOINT rightLowerLeg
    {
      OFFSET 0 -3.997221452859387 0
      CHANNELS 3 Yrotation Xrotation Zrotation
      JOINT rightFoot
      {
        OFFSET 0.1377926176 -4.6145792000000005 -0.22185782299999995
        CHANNELS 3 Yrotation Xrotation Zrotation
        JOINT rightToes
        {
          OFFSET 0.037780746850000047 -0.9130806927000008 0.85230167
          CHANNELS 3 Yrotation Xrotation Zrotation
          End Site
          {
            OFFSET 0.037780746850000047 -0.9130806927000008 0.85230167
          }
        }
      }
    }
  }
  JOINT spine
  {
    OFFSET 0 0.13988381660000015 0
    CHANNELS 3 Yrotation Xrotation Zrotation
    JOINT chest
    {
      OFFSET 0 0.6191039003973773 0
      CHANNELS 3 Yrotation Xrotation Zrotation
      JOINT upperChest
      {
        OFFSET 0 0.9855186130586943 0
        CHANNELS 3 Yrotation Xrotation Zrotation
        JOINT leftShoulder
        {
          OFFSET 0.1807663869 1.5087829790000005 0
          CHANNELS 3 Yrotation Xrotation Zrotation
          JOINT leftUpperArm
          {
            OFFSET 0.5985063006419806 0 0
            CHANNELS 3 Yrotation Xrotation Zrotation
            JOINT leftLowerArm
            {
              OFFSET 2.2993332369501065 0 0
              CHANNELS 3 Yrotation Xrotation Zrotation
              JOINT leftHand
              {
                OFFSET 2.395047042602395 0 0
                CHANNELS 3 Yrotation Xrotation Zrotation
                JOINT leftIndexProximal
                {
                  OFFSET 0.5766295810000004 0.04556643899499946 0.17265095988184
                  CHANNELS 3 Yrotation Xrotation Zrotation
                  JOINT leftIndexIntermediate
                  {
                    OFFSET 0.2957229000000008 -0.019352197700001517 -0.007932640616999987
                    CHANNELS 3 Yrotation Xrotation Zrotation
                    JOINT leftIndexDistal
                    {
                      OFFSET 0.19008243099999922 -0.012484908149998475 -0.002786250786000012
                      CHANNELS 3 Yrotation Xrotation Zrotation
                      End Site
                      {
                        OFFSET 0.19008243099999922 -0.012484908149998475 -0.002786250786000012
                      }
                    }
                  }
                }
                JOINT leftMiddleProximal
                {
                  OFFSET 0.5834975091000001 0.0524350405149987 0.02204081888183999
                  CHANNELS 3 Yrotation Xrotation Zrotation
                  JOINT leftMiddleIntermediate
                  {
                    OFFSET 0.33880573540000003 -0.019871473270000717 -0.00000971183179999946
                    CHANNELS 3 Yrotation Xrotation Zrotation
                    JOINT leftMiddleDistal
                    {
                      OFFSET 0.20676022730000088 -0.012221336379999448 0.0001471936708000235
                      CHANNELS 3 Yrotation Xrotation Zrotation
                      End Site
                      {
                        OFFSET 0.20676022730000088 -0.012221336379999448 0.0001471936708000235
                      }
                    }
                  }
                }
                JOINT leftLittleProximal
                {
                  OFFSET 0.5344154683999995 -0.012880921405001189 -0.24414037221816004
                  CHANNELS 3 Yrotation Xrotation Zrotation
                  JOINT leftLittleIntermediate
                  {
                    OFFSET 0.21758961730000093 -0.011650919939999227 0.011893592810000034
                    CHANNELS 3 Yrotation Xrotation Zrotation
                    JOINT leftLittleDistal
                    {
                      OFFSET 0.1475273964999999 -0.008152365682999818 0.006001092492999946
                      CHANNELS 3 Yrotation Xrotation Zrotation
                      End Site
                      {
                        OFFSET 0.1475273964999999 -0.008152365682999818 0.006001092492999946
                      }
                    }
                  }
                }
                JOINT leftRingProximal
                {
                  OFFSET 0.5799399463000003 0.026911854694997794 -0.12150566991816003
                  CHANNELS 3 Yrotation Xrotation Zrotation
                  JOINT leftRingIntermediate
                  {
                    OFFSET 0.26167887460000006 -0.013480186499999602 0.010996293000000053
                    CHANNELS 3 Yrotation Xrotation Zrotation
                    JOINT leftRingDistal
                    {
                      OFFSET 0.17667108799999987 -0.008990287899999228 0.0055541023999999065
                      CHANNELS 3 Yrotation Xrotation Zrotation
                      End Site
                      {
                        OFFSET 0.17667108799999987 -0.008990287899999228 0.0055541023999999065
                      }
                    }
                  }
                }
                JOINT leftThumbProximal
                {
                  OFFSET 0.11018806699999972 -0.09448718900500053 0.17047963138184
                  CHANNELS 3 Yrotation Xrotation Zrotation
                  JOINT leftThumbIntermediate
                  {
                    OFFSET 0.31062601459999983 -0.08126270900000132 0.15443142000000007
                    CHANNELS 3 Yrotation Xrotation Zrotation
                    JOINT leftThumbDistal
                    {
                      OFFSET 0.21627175790000086 -0.08833193599999878 0.018771167799999988
                      CHANNELS 3 Yrotation Xrotation Zrotation
                      End Site
                      {
                        OFFSET 0.21627175790000086 -0.08833193599999878 0.018771167799999988
                      }
                    }
                  }
                }
              }
            }
          }
        }
        JOINT neck
        {
          OFFSET 0 1.5463305265074576 0
          CHANNELS 3 Yrotation Xrotation Zrotation
          JOINT head
          {
            OFFSET 0 0.8456443600000344 0
            CHANNELS 3 Yrotation Xrotation Zrotation
            JOINT leftEye
            {
              OFFSET 0.30408573140000006 0.5104519199999995 0.1276382305
              CHANNELS 3 Yrotation Xrotation Zrotation
              End Site
              {
                OFFSET 0.30408573140000006 0.5104519199999995 0.1276382305
              }
            }
            JOINT rightEye
            {
              OFFSET -0.30409491089999996 0.5104519199999995 0.1276379445
              CHANNELS 3 Yrotation Xrotation Zrotation
              End Site
              {
                OFFSET -0.30409491089999996 0.5104519199999995 0.1276379445
              }
            }
            JOINT jaw
            {
              OFFSET -3.155239131000001e-7 -0.11984121820000082 0.60178107
              CHANNELS 3 Yrotation Xrotation Zrotation
              End Site
              {
                OFFSET -3.155239131000001e-7 -0.11984121820000082 0.60178107
              }
            }
          }
        }
        JOINT rightShoulder
        {
          OFFSET -0.1807303465 1.5087829790000005 0
          CHANNELS 3 Yrotation Xrotation Zrotation
          JOINT rightUpperArm
          {
            OFFSET -0.5985063796536958 0 0
            CHANNELS 3 Yrotation Xrotation Zrotation
            JOINT rightLowerArm
            {
              OFFSET -2.2993322059002854 0 0
              CHANNELS 3 Yrotation Xrotation Zrotation
              JOINT rightHand
              {
                OFFSET -2.395045314457259 0 0
                CHANNELS 3 Yrotation Xrotation Zrotation
                JOINT rightIndexProximal
                {
                  OFFSET -0.5764487688300002 0.0441371204405987 0.17361932004999997
                  CHANNELS 3 Yrotation Xrotation Zrotation
                  JOINT rightIndexIntermediate
                  {
                    OFFSET -0.29573011380000047 -0.01934826376999843 -0.007698921482999974
                    CHANNELS 3 Yrotation Xrotation Zrotation
                    JOINT rightIndexDistal
                    {
                      OFFSET -0.19008373999999884 -0.012503266380000655 -0.0026365778999999897
                      CHANNELS 3 Yrotation Xrotation Zrotation
                      End Site
                      {
                        OFFSET -0.19008373999999884 -0.012503266380000655 -0.0026365778999999897
                      }
                    }
                  }
                }
                JOINT rightMiddleProximal
                {
                  OFFSET -0.5834852037300005 0.05211639405060153 0.02307162440000001
                  CHANNELS 3 Yrotation Xrotation Zrotation
                  JOINT rightMiddleIntermediate
                  {
                    OFFSET -0.33880114510000003 -0.019952774050000954 0.0002455003561999819
                    CHANNELS 3 Yrotation Xrotation Zrotation
                    JOINT rightMiddleDistal
                    {
                      OFFSET -0.20675694929999955 -0.012273788999999091 0.00030209124000002766
                      CHANNELS 3 Yrotation Xrotation Zrotation
                      End Site
                      {
                        OFFSET -0.20675694929999955 -0.012273788999999091 0.00030209124000002766
                      }
                    }
                  }
                }
                JOINT rightLittleProximal
                {
                  OFFSET -0.5346811737299992 -0.011214256288399227 -0.24363941305000003
                  CHANNELS 3 Yrotation Xrotation Zrotation
                  JOINT rightLittleIntermediate
                  {
                    OFFSET -0.21757715980000092 -0.011771559690000988 0.01201554387
                    CHANNELS 3 Yrotation Xrotation Zrotation
                    JOINT rightLittleDistal
                    {
                      OFFSET -0.1475201849000004 -0.00822055339600003 0.006082065407000015
                      CHANNELS 3 Yrotation Xrotation Zrotation
                      End Site
                      {
                        OFFSET -0.1475201849000004 -0.00822055339600003 0.006082065407000015
                      }
                    }
                  }
                }
                JOINT rightRingProximal
                {
                  OFFSET -0.5800810755299999 0.027657985680600072 -0.12066365025000003
                  CHANNELS 3 Yrotation Xrotation Zrotation
                  JOINT rightRingIntermediate
                  {
                    OFFSET -0.26166445029999974 -0.013623118409999302 0.011164098990000045
                    CHANNELS 3 Yrotation Xrotation Zrotation
                    JOINT rightRingDistal
                    {
                      OFFSET -0.17666387530000027 -0.009072900100000503 0.005668185599999959
                      CHANNELS 3 Yrotation Xrotation Zrotation
                      End Site
                      {
                        OFFSET -0.17666387530000027 -0.009072900100000503 0.005668185599999959
                      }
                    }
                  }
                }
                JOINT rightThumbProximal
                {
                  OFFSET -0.10997596379000074 -0.09577489355940072 0.16989765924999997
                  CHANNELS 3 Yrotation Xrotation Zrotation
                  JOINT rightThumbIntermediate
                  {
                    OFFSET -0.31036620999999986 -0.08229339117999834 0.15440884469999996
                    CHANNELS 3 Yrotation Xrotation Zrotation
                    JOINT rightThumbDistal
                    {
                      OFFSET -0.21631306399999906 -0.08825326400000111 0.018656797720000014
                      CHANNELS 3 Yrotation Xrotation Zrotation
                      End Site
                      {
                        OFFSET -0.21631306399999906 -0.08825326400000111 0.018656797720000014
                      }
                    }
                  }
                }
              }
            }
          }
        }
      }
    }
  }
}
MOTION
Frames: 9
Frame Time: 0.03333333333333333
0 11.682712981546562 0 0 0 0 0 0 -5.826343164929014 -0.3712483961610101 -3.6333298826370974 5.838118207697276 0 0 0 0 0 0 0 0 5.826343164929014 0.3712483961610101 -3.6333298826370974 -5.838118207697276 0 0 0 0 0 0 0 -4.610651315171937 0 0 3.0831277533083026 0 0 0 0 0 1.5275236235667615 0 0 0 0 0 0 0 0 0 0 0 0 0 0 0 0 0 0 0 0 0 0 0 0 0 0 0 0 0 0 0 0 0 0 0 0 0 0 0 0 0 0 0 0 0 0 0 0 0 0 0 0 0 0 0 0 1.5275236235667615 0 0 0 0 0 0 0 0 0 0 0 0 0 0 1.5275236235667615 0 0 0 0 0 0 0 0 0 0 0 0 0 0 0 0 0 0 0 0 0 0 0 0 0 0 0 0 0 0 0 0 0 0 0 0 0 0 0 0 0 0 0 0 0 0 0 0 0 0 0 0 0 0 0
-0.5554595452419016 -10.215109687834206 4.868524150307368 -179.55942920885516 -33.98980470056667 -1.442064712231549 168.59033821870045 -71.22044079682333 -133.29691212601847 148.86384475134116 64.97146975279759 129.77240643635554 -25.315136509940807 38.812088943774526 -24.544671006347105 0 0 0 140.5439862179501 -69.63989909141729 -178.11381975358327 -167.20885710661895 61.67873004352718 -154.75413791893945 8.59892075160285 11.70563243880123 3.8146576309861846 0 0 0 -1.3081991164302271 20.26307344395274 -0.32852305271664617 -1.1554367551154483 31.857357643017007 -0.8467808650978677 0 0 0 4.3098923830704425 2.3660317971167895 -21.610241035431425 -15.058961737914451 -8.074980967312019 -35.502406262438164 -21.702201358378026 7.167232864228836 -46.47725514194565 -3.4877768249764034 -60.960698360697975 -2.609933583922914 0 0 0 0 0 0 0 0 0 0 0 0 0 0 0 0 0 0 0 0 0 0 0 0 0 0 0 0 0 0 0 0 0 0 0 0 0 0 0 0 0 0 0 0 0 -0.21249866063601816 -4.120553448676105 5.267471155992356 -0.828897258667637 -14.768758643531116 9.337291332858122 0 0 0 0 0 0 0 0 0 10.040047305532147 -9.538056467366191 27.942464514745083 1.8488189431741093 -2.2351646628647277 15.012814622418867 49.60401551946308 -11.859218933743042 -4.696764108653839 17.71071061860199 15.31635226453002 14.459951764381172 0 0 0 0 0 0 0 0 0 0 0 0 0 0 0 0 0 0 0 0 0 0 0 0 0 0 0 0 0 0 0 0 0 0 0 0 0 0 0 0 0 0 0 0 0
-0.5554595452419016 -10.215109687834206 4.868524150307368 -179.55938441078473 -33.98425266661497 -1.4418473880656353 168.59033821870045 -71.22044079682333 -133.29691212601847 148.86384475134116 64.97146975279759 129.77240643635554 -25.315136509940807 38.812088943774526 -24.544671006347105 0 0 0 140.54399044407808 -69.6398892756522 -178.11382976681597 -167.2088544741581 61.67873004352718 -154.7541346634516 8.59892075160285 11.70563243880123 3.8146576309861846 0 0 0 -1.3081991164302271 20.263075264147655 -0.3285231020299111 -1.1554367551154483 31.857357643017007 -0.8467808650978677 0 0 0 4.3098923830704425 2.3660317971167895 -21.610241035431425 -15.058961737914451 -8.074980967312019 -35.502406262438164 -21.702201358378026 7.167232864228836 -46.47725514194565 -3.4877768249764034 -60.960698360697975 -2.609933583922914 0 0 0 0 0 0 0 0 0 0 0 0 0 0 0 0 0 0 0 0 0 0 0 0 0 0 0 0 0 0 0 0 0 0 0 0 0 0 0 0 0 0 0 0 0 -0.12037739157626177 -3.982716796584495 5.453327626317113 -0.7877117669434598 -14.836526337878475 9.352177141524715 0 0 0 0 0 0 0 0 0 10.040047305532147 -9.538056467366191 27.942464514745083 1.5165805912926926 -2.1380521062254627 15.01723789564507 49.60401551946308 -11.859218933743042 -4.696764108653839 17.71071061860199 15.316354034959305 14.459951764381172 0 0 0 0 0 0 0 0 0 0 0 0 0 0 0 0 0 0 0 0 0 0 0 0 0 0 0 0 0 0 0 0 0 0 0 0 0 0 0 0 0 0 0 0 0
-0.5554595452419016 -10.215109687834206 4.868524150307368 -179.55938441078473 -33.98425266661497 -1.4418473880656353 168.59033536849668 -71.22044079682333 -133.29690666982762 148.86384475134116 64.97146975279759 129.77240643635554 -25.315136509940807 38.812088943774526 -24.544671006347105 0 0 0 140.54399502099733 -69.63989909141729 -178.11382925745426 -167.20885710661895 61.67873004352718 -154.75413791893945 8.59892247581457 11.705634182614842 3.8146585009612552 0 0 0 -1.3081991164302271 20.263075264147655 -0.3285231020299111 -1.1554368361933791 31.857361663780395 -0.8467809279154356 0 0 0 4.3098923830704425 2.3660317971167895 -21.61024421319038 -15.058961737914451 -8.074980967312019 -35.502406262438164 -21.702201358378026 7.167232864228836 -46.47725514194565 -3.4877768249764034 -60.960698360697975 -2.609933583922914 0 0 0 0 0 0 0 0 0 0 0 0 0 0 0 0 0 0 0 0 0 0 0 0 0 0 0 0 0 0 0 0 0 0 0 0 0 0 0 0 0 0 0 0 0 -0.027780814918833316 -3.8451197195245417 5.639460590827558 -0.7465245385109208 -14.904306436076876 9.367010817488394 0 0 0 0 0 0 0 0 0 10.040047909253706 -9.538059064591817 27.94246604436999 1.184118299017364 -2.040840613440046 15.02109303407159 49.60401817706883 -11.859219806137508 -4.696764108653839 17.71071061860199 15.31635226453002 14.459951764381172 0 0 0 0 0 0 0 0 0 0 0 0 0 0 0 0 0 0 0 0 0 0 0 0 0 0 0 0 0 0 0 0 0 0 0 0 0 0 0 0 0 0 0 0 0
-0.5554595452419016 -10.215109687834206 4.868524150307368 -179.55938441078473 -33.98425266661497 -1.4418473630337914 168.59034636235793 -71.2204301885687 -133.296913575099 148.86386526126395 64.97145360843578 129.7724229869975 -25.315140364961444 38.812093326563975 -24.544674820344444 0 0 0 140.54399044407808 -69.6398892756522 -178.11382976681597 -167.2088544741581 61.67873004352718 -154.7541346634516 8.59892247581457 11.705633310708036 3.81465806597372 0 0 0 -1.3081991164302271 20.263075264147655 -0.3285231020299111 -1.1554368361933791 31.857361663780395 -0.8467809279154356 0 0 0 4.309893235156208 2.3660317971167895 -21.61024262431092 -15.058961737914451 -8.074980967312019 -35.502406262438164 -21.70220615540144 7.167231573482757 -46.477264874126504 -3.487777702784051 -60.960698360697975 -2.609933583922914 0 0 0 0 0 0 0 0 0 0 0 0 0 0 0 0 0 0 0 0 0 0 0 0 0 0 0 0 0 0 0 0 0 0 0 0 0 0 0 0 0 0 0 0 0 0.06528890719728096 -3.707760450492299 5.825866500208771 -0.7053394464767895 -14.972107882483876 9.381803714107832 0 0 0 0 0 0 0 0 0 10.040046453048147 -9.538056467366191 27.94246604436999 0.8514349593168482 -1.9435382521501507 15.024396798053697 49.60401817706883 -11.859219806137508 -4.696764108653839 17.710712305121117 15.31635226453002 14.45995436289144 0 0 0 0 0 0 0 0 0 0 0 0 0 0 0 0 0 0 0 0 0 0 0 0 0 0 0 0 0 0 0 0 0 0 0 0 0 0 0 0 0 0 0 0 0
-0.5554595452419016 -10.215109687834206 4.868524150307368 -179.55938441078473 -33.98425266661497 -1.4418473880656353 168.59033427214163 -71.22045140508374 -133.29691327594244 148.8638451109693 64.97146975279759 129.77240643635554 -25.315136509940807 38.812088943774526 -24.544671006347105 0 0 0 140.5439862179501 -69.63989909141729 -178.11381975358327 -167.20885710661895 61.67873004352718 -154.75413791893945 8.59892075160285 11.705630694987626 3.8146576309861846 0 0 0 -1.3081991164302271 20.26307162375785 -0.328522995836492 -1.1554367551154483 31.857357643017007 -0.8467808650978677 0 0 0 4.3098923830704425 2.3660317971167895 -21.61023944655189 -15.058961737914451 -8.074980104988514 -35.502406262438164 -21.702201358378026 7.167232864228836 -46.47725514194565 -3.4877766273153745 -60.96069132520611 -2.6099329431841176 0 0 0 0 0 0 0 0 0 0 0 0 0 0 0 0 0 0 0 0 0 0 0 0 0 0 0 0 0 0 0 0 0 0 0 0 0 0 0 0 0 0 0 0 0 0.1588335597150876 -3.5706470694008634 6.0125491079384235 -0.66415326006365 -15.039925487977921 9.396551497280205 0 0 0 0 0 0 0 0 0 10.040047305532147 -9.538055601624322 27.942461362426744 0.5185353423859816 -1.846147747617109 15.027127741334061 49.60401551946308 -11.859218933743042 -4.696764108653839 17.710708932082834 15.31635226453002 14.459950050034845 0 0 0 0 0 0 0 0 0 0 0 0 0 0 0 0 0 0 0 0 0 0 0 0 0 0 0 0 0 0 0 0 0 0 0 0 0 0 0 0 0 0 0 0 0
-0.5554595452419016 -10.215109687834206 4.868524150307368 -179.55938441078473 -33.98425266661497 -1.4418473880656353 168.59032202551305 -71.22045140508374 -133.2968997645459 148.86384475134116 64.97146975279759 129.77240643635554 -25.315136509940807 38.812088943774526 -24.544671006347105 0 0 0 140.5439862179501 -69.63989909141729 -178.11381975358327 -167.20885710661895 61.67873004352718 -154.75413791893945 8.59892075160285 11.70563243880123 3.8146576309861846 0 0 0 -1.3081991164302271 20.26307344395274 -0.32852305271664617 -1.1554367551154483 31.857357643017007 -0.8467808650978677 0 0 0 4.309891274118337 2.3660317971167895 -21.610241035431425 -15.058961737914451 -8.074980967312019 -35.502406262438164 -21.702199759370146 7.167233724726224 -46.4772502758552 -3.4877768249764034 -60.960698360697975 -2.609933583922914 0 0 0 0 0 0 0 0 0 0 0 0 0 0 0 0 0 0 0 0 0 0 0 0 0 0 0 0 0 0 0 0 0 0 0 0 0 0 0 0 0 0 0 0 0 0.2528499375309088 -3.4337801757366915 6.199508106456178 -0.6229678607056044 -15.10776290036083 9.411257385691048 0 0 0 0 0 0 0 0 0 10.040046453048147 -9.538056467366191 27.94246298512014 0.18542228404900796 -1.7486733177450382 15.029297654981994 49.60401060037884 -11.859218933743042 -4.696764108653839 17.710708932082834 15.31635226453002 14.459951764381172 0 0 0 0 0 0 0 0 0 0 0 0 0 0 0 0 0 0 0 0 0 0 0 0 0 0 0 0 0 0 0 0 0 0 0 0 0 0 0 0 0 0 0 0 0
-0.5554595452419016 -10.215109687834206 4.868524150307368 -179.55938441078473 -33.98425266661497 -1.4418473880656353 168.59033821870045 -71.22044079682333 -133.29691212601847 148.86384475134116 64.97146975279759 129.77240643635554 -25.315136509940807 38.812088943774526 -24.544671006347105 0 0 0 140.5439862179501 -69.63989909141729 -178.11381975358327 -167.20885710661895 61.67873004352718 -154.75413791893945 8.59892075160285 11.70563243880123 3.8146576309861846 0 0 0 -1.3081991164302271 20.26307344395274 -0.32852305271664617 -1.1554367551154483 31.857357643017007 -0.8467808650978677 0 0 0 4.3098923830704425 2.3660317971167895 -21.610241035431425 -15.058961737914451 -8.074980967312019 -35.502406262438164 -21.702201358378026 7.167232864228836 -46.47725514194565 -3.4877768249764034 -60.960698360697975 -2.609933583922914 0 0 0 0 0 0 0 0 0 0 0 0 0 0 0 0 0 0 0 0 0 0 0 0 0 0 0 0 0 0 0 0 0 0 0 0 0 0 0 0 0 0 0 0 0 0.3473398219411948 -3.2971637979191586 6.386742336036355 -0.58178217534471 -15.175616695242896 9.425919082500302 0 0 0 0 0 0 0 0 0 10.040047305532147 -9.538056467366191 27.942464514745083 -0.147898523621916 -1.6511209930765143 15.030903347933661 49.60401551946308 -11.859218933743042 -4.696764108653839 17.71071061860199 15.31635226453002 14.459951764381172 0 0 0 0 0 0 0 0 0 0 0 0 0 0 0 0 0 0 0 0 0 0 0 0 0 0 0 0 0 0 0 0 0 0 0 0 0 0 0 0 0 0 0 0 0
-0.5554595452419016 -10.215109687834206 4.868524150307368 -179.55938441078473 -33.98425266661497 -1.4418473880656353 168.59033821870045 -71.22044079682333 -133.29691212601847 148.86384475134116 64.97146975279759 129.77240643635554 -25.315140364961444 38.812093326563975 -24.544674820344444 0 0 0 140.5439862179501 -69.63989909141729 -178.11381975358327 -167.20885710661895 61.67873004352718 -154.75413791893945 8.59892075160285 11.70563243880123 3.8146576309861846 0 0 0 -1.3081991164302271 20.263075264147655 -0.3285231020299111 -1.1554367551154483 31.857357643017007 -0.8467808650978677 0 0 0 4.3098923830704425 2.3660317971167895 -21.610241035431425 -15.058961737914451 -8.074980967312019 -35.502406262438164 -21.702201358378026 7.167232864228836 -46.47725514194565 -3.4877768249764034 -60.960698360697975 -2.609933583922914 0 0 0 0 0 0 0 0 0 0 0 0 0 0 0 0 0 0 0 0 0 0 0 0 0 0 0 0 0 0 0 0 0 0 0 0 0 0 0 0 0 0 0 0 0 0.4423019157053085 -3.1608023982422946 6.574252727096272 -0.5405959806972849 -15.243490523221292 9.44053486486075 0 0 0 0 0 0 0 0 0 10.040047305532147 -9.538056467366191 27.942464514745083 -0.4814252677150116 -1.5534956271719884 15.03193984801748 49.60401551946308 -11.859218933743042 -4.696764108653839 17.71071061860199 15.31635226453002 14.459951764381172 0 0 0 0 0 0 0 0 0 0 0 0 0 0 0 0 0 0 0 0 0 0 0 0 0 0 0 0 0 0 0 0 0 0 0 0 0 0 0 0 0 0 0 0 0
